<svg width="1080" height="1080" viewBox="0 0 1080 1080" fill="none" xmlns="http://www.w3.org/2000/svg">
<g clip-path="url(#clip0_153_40)">
<path d="M242.069 131.09C242.069 58.6909 300.76 0 373.158 0H706.841C779.24 0 837.931 58.6908 837.931 131.09V948.91C837.931 1021.31 779.24 1080 706.841 1080H373.158C300.76 1080 242.069 1021.31 242.069 948.91V131.09Z" fill="#26AB7B"/>
<path d="M131.09 837.931C58.6909 837.931 0 779.24 0 706.841V373.159C0 300.76 58.6908 242.069 131.09 242.069H948.91C1021.31 242.069 1080 300.76 1080 373.159V706.841C1080 779.24 1021.31 837.931 948.91 837.931H131.09Z" fill="#26AB7B"/>
<path d="M618.473 40.1876C669.668 -11.006 752.669 -11.006 803.863 40.1876L1039.81 276.137C1091.01 327.331 1091.01 410.331 1039.81 461.526L461.525 1039.81C410.331 1091.01 327.331 1091.01 276.137 1039.81L40.1875 803.863C-11.0062 752.669 -11.0062 669.668 40.1875 618.474L618.473 40.1876Z" fill="#26AB7B"/>
<path d="M39.8115 462.128C-11.3822 410.935 -11.3822 327.934 39.8115 276.741L275.76 40.7908C326.954 -10.4029 409.956 -10.4029 461.149 40.7908L1039.44 619.077C1090.63 670.27 1090.63 753.272 1039.44 804.466L803.487 1040.42C752.294 1091.61 669.292 1091.61 618.098 1040.42L39.8115 462.128Z" fill="#26AB7B"/>
<mask id="mask0_153_40" style="mask-type:alpha" maskUnits="userSpaceOnUse" x="0" y="0" width="1080" height="1080">
<path d="M242.069 131.09C242.069 58.6909 300.76 0 373.158 0H706.841C779.24 0 837.931 58.6908 837.931 131.09V948.91C837.931 1021.31 779.24 1080 706.841 1080H373.158C300.76 1080 242.069 1021.31 242.069 948.91V131.09Z" fill="#008C95"/>
<path d="M131.09 837.931C58.6909 837.931 0 779.24 0 706.841V373.159C0 300.76 58.6908 242.069 131.09 242.069H948.91C1021.31 242.069 1080 300.76 1080 373.159V706.841C1080 779.24 1021.31 837.931 948.91 837.931H131.09Z" fill="#008C95"/>
<path d="M618.473 40.1876C669.668 -11.006 752.669 -11.006 803.863 40.1876L1039.81 276.137C1091.01 327.331 1091.01 410.331 1039.81 461.526L461.525 1039.81C410.331 1091.01 327.331 1091.01 276.137 1039.81L40.1875 803.863C-11.0062 752.669 -11.0062 669.668 40.1875 618.474L618.473 40.1876Z" fill="#008C95"/>
<path d="M39.8115 462.128C-11.3822 410.935 -11.3822 327.934 39.8115 276.741L275.76 40.7908C326.954 -10.4029 409.956 -10.4029 461.149 40.7908L1039.44 619.077C1090.63 670.27 1090.63 753.272 1039.44 804.466L803.487 1040.42C752.294 1091.61 669.292 1091.61 618.098 1040.42L39.8115 462.128Z" fill="#008C95"/>
</mask>
<g mask="url(#mask0_153_40)">
<path d="M814.841 -101.297L290.483 1161.93H-269.628V-101.297H814.841Z" fill="#91D7C3"/>
</g>
<g filter="url(#filter0_i_153_40)">
<path d="M333.785 258.738C333.785 208.808 374.262 168.331 424.193 168.331H654.317C704.248 168.331 744.725 208.808 744.725 258.738V822.751C744.725 872.682 704.248 913.159 654.317 913.159H424.193C374.262 913.159 333.785 872.682 333.785 822.751V258.738Z" fill="#48BF91"/>
<path d="M257.248 746.214C207.318 746.214 166.841 705.738 166.841 655.807V425.682C166.841 375.752 207.318 335.275 257.248 335.275H821.262C871.192 335.275 911.669 375.752 911.669 425.682V655.807C911.669 705.738 871.192 746.214 821.262 746.214H257.248Z" fill="#48BF91"/>
<path d="M593.376 196.046C628.681 160.741 685.923 160.741 721.23 196.046L883.954 358.77C919.259 394.076 919.259 451.319 883.954 486.624L485.134 885.444C449.83 920.748 392.587 920.748 357.28 885.444L194.556 722.72C159.251 687.413 159.251 630.17 194.556 594.865L593.376 196.046Z" fill="#48BF91"/>
<path d="M194.297 487.041C158.992 451.735 158.992 394.492 194.297 359.186L357.021 196.463C392.328 161.157 449.569 161.157 484.875 196.463L883.695 595.281C919 630.587 919 687.829 883.695 723.135L720.971 885.859C685.664 921.166 628.421 921.166 593.117 885.859L194.297 487.041Z" fill="#48BF91"/>
</g>
<g filter="url(#filter1_d_153_40)">
<path d="M454.866 793.614C443.694 795.848 432.074 796.519 420.008 795.625C407.942 795.178 396.77 792.497 386.491 787.581C375.319 783.559 366.604 776.632 360.347 766.8C355.432 760.097 351.633 752.723 348.952 744.679C346.717 736.634 344.93 728.367 343.589 719.876C340.907 704.681 339.343 689.263 338.896 673.622C338.45 657.981 338.226 642.339 338.226 626.698C338.226 614.632 338.226 602.565 338.226 590.499C338.673 577.986 339.12 565.473 339.567 552.96C339.567 548.491 340.014 539.777 340.907 526.817C341.801 513.41 342.695 499.332 343.589 484.585C344.483 469.39 345.153 455.313 345.6 442.353C346.494 428.946 347.164 420.008 347.611 415.539C348.952 402.579 350.739 389.396 352.974 375.989C355.208 362.582 358.783 349.622 363.699 337.109C368.168 326.83 373.978 318.786 381.128 312.977C389.619 305.826 400.121 301.134 412.634 298.899C433.638 294.877 453.749 296.218 472.965 302.921C478.775 305.156 484.361 308.284 489.724 312.306C495.087 315.881 499.556 320.127 503.131 325.043C510.281 334.428 514.303 344.706 515.197 355.879C516.985 375.095 515.644 394.312 511.175 413.528C507.153 432.298 503.801 451.291 501.12 470.508C515.867 453.972 530.615 437.661 545.363 421.572C560.11 405.037 575.305 388.725 590.946 372.637C602.565 360.571 614.855 348.952 627.815 337.779C641.222 326.607 655.97 318.563 672.058 313.647C677.421 312.306 682.783 311.412 688.146 310.965C693.956 310.519 699.318 311.412 704.234 313.647C708.703 315.434 712.725 318.116 716.301 321.691C719.876 324.819 723.004 328.171 725.685 331.746C730.601 338.897 734.847 346.494 738.422 354.538C742.444 362.582 745.572 371.073 747.807 380.011C752.723 396.546 751.605 412.411 744.455 427.605C740.88 434.309 736.411 440.119 731.048 445.034C725.685 449.95 720.099 454.643 714.29 459.112C710.714 461.793 703.117 467.156 691.498 475.2C680.325 482.797 668.259 491.065 655.299 500.003C642.339 508.494 630.05 516.538 618.43 524.135C607.258 531.732 599.884 536.872 596.309 539.553C595.862 540 596.085 540.67 596.979 541.564C598.32 542.458 599.214 543.352 599.661 544.246C600.554 545.586 602.118 547.597 604.353 550.279C606.587 552.513 609.045 555.194 611.727 558.323C614.408 561.004 616.866 563.686 619.101 566.367C621.782 568.601 623.57 570.166 624.463 571.059C632.061 578.657 639.881 586.03 647.925 593.181C655.97 600.331 664.461 607.258 673.398 613.961C684.124 622.452 695.073 630.497 706.245 638.094C717.865 645.691 728.367 654.405 737.752 664.237C745.349 671.834 750.041 679.879 751.829 688.37C753.616 694.626 753.84 701.106 752.499 707.81C751.158 714.513 749.147 720.993 746.466 727.25C741.103 738.869 734.4 749.594 726.356 759.426C719.205 767.47 710.267 774.174 699.542 779.536C689.263 784.452 678.985 786.91 668.706 786.91C659.768 786.463 650.83 784.229 641.892 780.207C633.401 776.185 625.581 771.046 618.43 764.789C595.192 746.019 574.634 724.345 556.758 699.765C539.33 675.186 522.124 650.607 505.142 626.028C506.483 641.669 507.823 657.087 509.164 672.281C510.952 687.029 511.398 702.223 510.505 717.865C510.058 726.803 508.717 735.964 506.483 745.349C504.248 754.287 500.226 762.554 494.416 770.152C489.501 776.408 483.467 781.324 476.317 784.899C469.614 788.921 462.463 791.826 454.866 793.614Z" fill="#91D7C3"/>
</g>
</g>
<defs>
<filter id="filter0_i_153_40" x="166.841" y="168.331" width="752.828" height="752.828" filterUnits="userSpaceOnUse" color-interpolation-filters="sRGB">
<feFlood flood-opacity="0" result="BackgroundImageFix"/>
<feBlend mode="normal" in="SourceGraphic" in2="BackgroundImageFix" result="shape"/>
<feColorMatrix in="SourceAlpha" type="matrix" values="0 0 0 0 0 0 0 0 0 0 0 0 0 0 0 0 0 0 127 0" result="hardAlpha"/>
<feOffset dx="8" dy="8"/>
<feGaussianBlur stdDeviation="32"/>
<feComposite in2="hardAlpha" operator="arithmetic" k2="-1" k3="1"/>
<feColorMatrix type="matrix" values="0 0 0 0 0 0 0 0 0 0 0 0 0 0 0 0 0 0 0.1 0"/>
<feBlend mode="normal" in2="shape" result="effect1_innerShadow_153_40"/>
</filter>
<filter id="filter1_d_153_40" x="322.226" y="288.637" width="447.135" height="531.371" filterUnits="userSpaceOnUse" color-interpolation-filters="sRGB">
<feFlood flood-opacity="0" result="BackgroundImageFix"/>
<feColorMatrix in="SourceAlpha" type="matrix" values="0 0 0 0 0 0 0 0 0 0 0 0 0 0 0 0 0 0 127 0" result="hardAlpha"/>
<feOffset dy="8"/>
<feGaussianBlur stdDeviation="8"/>
<feComposite in2="hardAlpha" operator="out"/>
<feColorMatrix type="matrix" values="0 0 0 0 0 0 0 0 0 0 0 0 0 0 0 0 0 0 0.25 0"/>
<feBlend mode="normal" in2="BackgroundImageFix" result="effect1_dropShadow_153_40"/>
<feBlend mode="normal" in="SourceGraphic" in2="effect1_dropShadow_153_40" result="shape"/>
</filter>
<clipPath id="clip0_153_40">
<rect width="1080" height="1080" fill="white"/>
</clipPath>
</defs>
</svg>
