<svg width="60" height="60" viewBox="0 0 60 60" fill="none" xmlns="http://www.w3.org/2000/svg">
<path opacity="0.5" fill-rule="evenodd" clip-rule="evenodd" d="M24 60H36C47.313 60 52.971 60 56.484 56.484C60 52.971 60 47.313 60 36V34.689C60 32.07 60 30.102 59.871 28.5H47.715C44.424 28.5 41.514 28.5 39.171 28.185C36.63 27.843 34.089 27.06 32.016 24.987C29.94 22.911 29.157 20.37 28.815 17.829C28.5 15.486 28.5 12.579 28.5 9.285L28.53 0.783C28.53 0.534 28.551 0.291 28.59 0.0509999C27.363 -1.22935e-07 25.908 0 24.09 0C12.717 0 7.029 -3.57628e-07 3.516 3.516C-3.57628e-07 7.029 0 12.687 0 24V36C0 47.313 -3.57628e-07 52.971 3.516 56.484C7.029 60 12.687 60 24 60Z" fill="#86C8BC"/>
<path d="M26.106 36.792C26.2173 36.5139 26.272 36.2163 26.2668 35.9168C26.2616 35.6173 26.1966 35.3218 26.0757 35.0477C25.9547 34.7736 25.7803 34.5265 25.5626 34.3207C25.3449 34.1149 25.0882 33.9547 24.8078 33.8494C24.5273 33.7441 24.2286 33.6959 23.9293 33.7076C23.63 33.7193 23.336 33.7907 23.0646 33.9175C22.7931 34.0443 22.5498 34.2241 22.3488 34.4462C22.1478 34.6683 21.9932 34.9283 21.894 35.211L17.394 47.211C17.2826 47.4891 17.228 47.7867 17.2332 48.0862C17.2384 48.3857 17.3034 48.6812 17.4243 48.9553C17.5452 49.2294 17.7196 49.4766 17.9374 49.6824C18.1551 49.8881 18.4117 50.0483 18.6922 50.1536C18.9726 50.2589 19.2713 50.3071 19.5706 50.2954C19.87 50.2837 20.164 50.2124 20.4354 50.0855C20.7068 49.9587 20.9501 49.779 21.1512 49.5569C21.3522 49.3347 21.5068 49.0747 21.606 48.792L26.106 36.792ZM16.59 37.59C16.811 37.384 16.9883 37.1356 17.1113 36.8596C17.2343 36.5836 17.3004 36.2857 17.3057 35.9836C17.3111 35.6815 17.2555 35.3814 17.1423 35.1012C17.0292 34.8211 16.8607 34.5666 16.6471 34.3529C16.4334 34.1392 16.1789 33.9708 15.8988 33.8576C15.6186 33.7445 15.3185 33.6889 15.0164 33.6942C14.7143 33.6996 14.4164 33.7657 14.1404 33.8887C13.8644 34.0116 13.616 34.189 13.41 34.41L10.41 37.41C9.98862 37.8319 9.75195 38.4038 9.75195 39C9.75195 39.5963 9.98862 40.1681 10.41 40.59L13.41 43.59C13.8365 43.9875 14.4006 44.2038 14.9835 44.1935C15.5664 44.1833 16.1226 43.9471 16.5348 43.5349C16.9471 43.1226 17.1832 42.5665 17.1935 41.9836C17.2038 41.4007 16.9874 40.8365 16.59 40.41L15.18 39L16.59 37.59ZM30.09 40.41C29.884 40.189 29.6356 40.0116 29.3596 39.8887C29.0836 39.7657 28.7856 39.6996 28.4835 39.6942C28.1814 39.6889 27.8813 39.7445 27.6012 39.8576C27.321 39.9708 27.0665 40.1392 26.8529 40.3529C26.6392 40.5666 26.4708 40.8211 26.3576 41.1012C26.2444 41.3814 26.1889 41.6815 26.1942 41.9836C26.1995 42.2857 26.2657 42.5836 26.3886 42.8596C26.5116 43.1356 26.6889 43.384 26.91 43.59L28.32 45L26.91 46.41C26.6889 46.616 26.5116 46.8644 26.3886 47.1404C26.2657 47.4164 26.1995 47.7143 26.1942 48.0164C26.1889 48.3186 26.2444 48.6186 26.3576 48.8988C26.4708 49.179 26.6392 49.4335 26.8529 49.6471C27.0665 49.8608 27.321 50.0292 27.6012 50.1424C27.8813 50.2555 28.1814 50.3111 28.4835 50.3058C28.7856 50.3005 29.0836 50.2343 29.3596 50.1114C29.6356 49.9884 29.884 49.8111 30.09 49.59L33.09 46.59C33.5113 46.1681 33.748 45.5963 33.748 45C33.748 44.4038 33.5113 43.8319 33.09 43.41L30.09 40.41ZM28.53 0.780014L28.5 9.28501C28.5 12.576 28.5 15.483 28.815 17.829C29.157 20.37 29.94 22.911 32.016 24.984C34.086 27.057 36.63 27.843 39.171 28.185C41.514 28.5 44.424 28.5 47.715 28.5H59.871C59.91 28.965 59.937 29.463 59.955 30H60C60 29.196 60 28.794 59.97 28.32C59.7389 25.4693 58.7463 22.7329 57.096 20.397C56.814 20.013 56.622 19.785 56.241 19.326C53.862 16.482 50.73 12.936 48 10.5C45.57 8.32801 42.237 5.95501 39.33 4.01701C36.834 2.34901 35.586 1.51501 33.873 0.897014C33.3747 0.718706 32.8681 0.564527 32.355 0.435014C31.203 0.150014 30.081 0.0510146 28.5 0.0150146L28.53 0.780014Z" fill="#70ABA1"/>
</svg>
