<svg width="65" height="60" viewBox="0 0 65 60" fill="none" xmlns="http://www.w3.org/2000/svg">
<path d="M58 45C59.72 45 61.17 45.6 62.35 46.8C63.53 48 64.11 49.4 64.09 51L40 60L19 54V27H24.85L46.66 35.07C48.22 35.69 49 36.81 49 38.43C49 39.37 48.66 40.19 47.98 40.89C47.3 41.59 46.44 41.96 45.4 42H37L31.75 39.99L30.76 42.81L37 45H58ZM46 3.69C48.12 1.23 50.82 0 54.1 0C56.82 0 59.12 1 61 3C62.88 5 63.88 7.3 64 9.9C64 11.96 63 14.42 61 17.28C59 20.14 57.03 22.53 55.09 24.45C53.15 26.37 50.12 29.22 46 33C41.84 29.22 38.78 26.37 36.82 24.45C34.86 22.53 32.89 20.14 30.91 17.28C28.93 14.42 27.96 11.96 28 9.9C28 7.18 28.97 4.88 30.91 3C32.85 1.12 35.19 0.12 37.93 0C41.13 0 43.82 1.23 46 3.69ZM0.951996 27H13V60H0.951996V27Z" fill="#70ABA1"/>
</svg>
