<svg width="60" height="60" viewBox="0 0 60 60" fill="none" xmlns="http://www.w3.org/2000/svg">
<path fill-rule="evenodd" clip-rule="evenodd" d="M0 6C0 4.4087 0.632141 2.88258 1.75736 1.75736C2.88258 0.632141 4.4087 0 6 0L54 0C55.5913 0 57.1174 0.632141 58.2426 1.75736C59.3679 2.88258 60 4.4087 60 6V22L56.8 19.596C53.3337 16.9963 49.046 15.7341 44.724 16.0413C40.402 16.3484 36.3359 18.2043 33.2721 21.2681C30.2083 24.3319 28.3524 28.398 28.0453 32.72C27.7381 37.042 29.0003 41.3297 31.6 44.796L32 45.332V60H6C4.4087 60 2.88258 59.3679 1.75736 58.2426C0.632141 57.1174 0 55.5913 0 54L0 6ZM32 20H12V16H32V20ZM12 32H24V28H12V32Z" fill="#70ABA1"/>
<path fill-rule="evenodd" clip-rule="evenodd" d="M46 20C43.2428 19.9996 40.5469 20.8134 38.2504 22.3392C35.9539 23.865 34.1591 26.035 33.091 28.5769C32.023 31.1188 31.7293 33.9195 32.2468 36.6277C32.7643 39.3359 34.07 41.831 36 43.8V58C36 58.3714 36.1034 58.7355 36.2987 59.0515C36.494 59.3674 36.7734 59.6227 37.1056 59.7889C37.4378 59.955 37.8097 60.0253 38.1796 59.9919C38.5495 59.9586 38.9029 59.8229 39.2 59.6L46 54.5L52.8 59.6C53.0971 59.8229 53.4505 59.9586 53.8204 59.9919C54.1903 60.0253 54.5622 59.955 54.8944 59.7889C55.2266 59.6227 55.506 59.3674 55.7013 59.0515C55.8966 58.7355 56 58.3714 56 58V43.8C57.93 41.831 59.2357 39.3359 59.7532 36.6277C60.2707 33.9195 59.977 31.1188 58.909 28.5769C57.8409 26.035 56.0461 23.865 53.7496 22.3392C51.4531 20.8134 48.7572 19.9996 46 20ZM40 54V46.652C41.82 47.516 43.852 48 46 48C48.148 48 50.18 47.52 52 46.652V54L47.2 50.4C46.8538 50.1404 46.4327 50 46 50C45.5673 50 45.1462 50.1404 44.8 50.4L40 54Z" fill="#C3E3DD"/>
</svg>
