<svg width="70" height="48" viewBox="0 0 70 48" fill="none" xmlns="http://www.w3.org/2000/svg">
<path d="M46.5208 45.875C58.625 45.875 68.3958 36.1042 68.3958 24H24.6458C24.6458 36.1042 34.4167 45.875 46.5208 45.875Z" fill="#F9F9F9"/>
<path d="M46.5208 2.125C34.4167 2.125 24.6458 11.8958 24.6458 24H68.3958C68.3958 11.8958 58.625 2.125 46.5208 2.125Z" fill="#ED4C5C"/>
<g clip-path="url(#clip0_126_42)">
<mask id="mask0_126_42" style="mask-type:luminance" maskUnits="userSpaceOnUse" x="0" y="0" width="47" height="48">
<path d="M23.3333 47.3333C36.22 47.3333 46.6667 36.8866 46.6667 24C46.6667 11.1133 36.22 0.666626 23.3333 0.666626C10.4467 0.666626 0 11.1133 0 24C0 36.8866 10.4467 47.3333 23.3333 47.3333Z" fill="white"/>
</mask>
<g mask="url(#mask0_126_42)">
<path d="M0 0.666626L0.729167 2.67183L0 4.76819V6.86454L2.91667 11.7864L0 16.7083V19.625L2.91667 24L0 28.375V31.2916L2.91667 36.2135L0 41.1354V47.3333L2.00521 46.6041L4.10156 47.3333H6.19792L11.1198 44.4166L16.0417 47.3333H18.9583L23.3333 44.4166L27.7083 47.3333H30.625L35.5469 44.4166L40.4688 47.3333H46.6667L45.9375 45.3281L46.6667 43.2317V41.1354L43.75 36.2135L46.6667 31.2916V28.375L43.75 24L46.6667 19.625V16.7083L43.75 11.7864L46.6667 6.86454V0.666626L44.6615 1.39579L42.5651 0.666626H40.4688L35.5469 3.58329L30.625 0.666626H27.7083L23.3333 3.58329L18.9583 0.666626H16.0417L11.1198 3.58329L6.19792 0.666626H0Z" fill="#EEEEEE"/>
<path d="M30.625 0.666626V10.5104L40.4688 0.666626H30.625ZM46.6667 6.86454L36.8229 16.7083H46.6667V6.86454ZM0 16.7083H9.84375L0 6.86454V16.7083ZM6.19792 0.666626L16.0417 10.5104V0.666626H6.19792ZM16.0417 47.3333V37.4895L6.19792 47.3333H16.0417ZM0 41.1354L9.84375 31.2916H0V41.1354ZM46.6667 31.2916H36.8229L46.6667 41.1354V31.2916ZM40.4688 47.3333L30.625 37.4895V47.3333H40.4688Z" fill="#0052B4"/>
<path d="M0 0.666626V4.76819L11.9401 16.7083H16.0417L0 0.666626ZM18.9583 0.666626V19.625H0V28.375H18.9583V47.3333H27.7083V28.375H46.6667V19.625H27.7083V0.666626H18.9583ZM42.5651 0.666626L30.625 12.6067V16.7083L46.6667 0.666626H42.5651ZM16.0417 31.2916L0 47.3333H4.10156L16.0417 35.3932V31.2916ZM30.625 31.2916L46.6667 47.3333V43.2317L34.7266 31.2916H30.625Z" fill="#D80027"/>
</g>
</g>
<defs>
<clipPath id="clip0_126_42">
<rect width="46.6667" height="46.6667" fill="white" transform="translate(0 0.666626)"/>
</clipPath>
</defs>
</svg>
