<svg width="60" height="52" viewBox="0 0 60 52" fill="none" xmlns="http://www.w3.org/2000/svg">
<path d="M30 27.7C37.511 27.7 43.5999 21.6111 43.5999 14.1C43.5999 6.58901 37.511 0.500122 30 0.500122C22.4889 0.500122 16.4001 6.58901 16.4001 14.1C16.4001 21.6111 22.4889 27.7 30 27.7Z" fill="#C3E3DD"/>
<path d="M46.9999 24.3C52.6332 24.3 57.1998 19.7334 57.1998 14.1001C57.1998 8.46681 52.6332 3.90015 46.9999 3.90015C41.3666 3.90015 36.7999 8.46681 36.7999 14.1001C36.7999 19.7334 41.3666 24.3 46.9999 24.3Z" fill="#70ABA1"/>
<path d="M13.0001 24.3C18.6334 24.3 23.2 19.7334 23.2 14.1001C23.2 8.46681 18.6334 3.90015 13.0001 3.90015C7.36682 3.90015 2.80016 8.46681 2.80016 14.1001C2.80016 19.7334 7.36682 24.3 13.0001 24.3Z" fill="#70ABA1"/>
<path fill-rule="evenodd" clip-rule="evenodd" d="M48.9345 44.7H56.8428C58.8556 44.7 60.3958 42.966 59.9096 41.0144C58.655 36.0164 55.323 27.7001 46.9999 27.7001C43.9875 27.7001 41.6279 28.7881 39.7851 30.4201C44.9123 33.7418 47.5643 39.566 48.9345 44.7ZM20.2149 30.4201C18.238 28.6376 15.6616 27.6663 13.0001 27.7001C4.67695 27.7001 1.34497 36.0164 0.0903779 41.0144C-0.395819 42.966 1.14437 44.7 3.15716 44.7H11.0689C12.4391 39.566 15.0877 33.7418 20.2149 30.4201Z" fill="#70ABA1"/>
<path d="M30 31.1C42.6105 31.1 45.8643 42.3233 46.7075 48.1203C46.9795 49.9801 45.4767 51.4999 43.5999 51.4999H16.4001C14.5233 51.4999 13.0239 49.9801 13.2925 48.1203C14.1357 42.3233 17.3895 31.1 30 31.1Z" fill="#C3E3DD"/>
</svg>
